<svg xmlns="http://www.w3.org/2000/svg" xmlns:xlink="http://www.w3.org/1999/xlink" width="1093" height="1096" viewBox="0 0 1093 1096">
    <defs>
        <circle id="a" cx="52" cy="52" r="52"/>
        <circle id="c" cx="146" cy="146" r="146"/>
        <circle id="e" cx="121.5" cy="121.5" r="121.5"/>
        <circle id="g" cx="206.5" cy="206.5" r="206.5"/>
    </defs>
    <g fill="none" fill-rule="evenodd" opacity=".7">
        <g transform="rotate(11.501 -3330.953 2218.302)">
            <mask id="b" fill="#fff">
                <use xlink:href="#a"/>
            </mask>
            <use fill="#FAFBFF" fill-opacity="0" xlink:href="#a"/>
            <circle cx="20.5" cy="-3.5" r="3.5" fill="#FAFBFF" fill-opacity=".1" mask="url(#b)"/>
            <circle cx="74.5" cy="-3.5" r="3.5" fill="#FAFBFF" fill-opacity=".1" mask="url(#b)"/>
            <circle cx="-6.5" cy="-3.5" r="3.5" fill="#FAFBFF" fill-opacity=".1" mask="url(#b)"/>
            <circle cx="47.5" cy="-3.5" r="3.5" fill="#FAFBFF" fill-opacity=".1" mask="url(#b)"/>
            <circle cx="34.5" cy="-10.5" r="4.5" fill="#FAFBFF" fill-opacity=".1" mask="url(#b)"/>
            <circle cx="88.5" cy="-11.5" r="4.5" fill="#FAFBFF" fill-opacity=".1" mask="url(#b)"/>
            <circle cx="7.5" cy="-10.5" r="4.5" fill="#FAFBFF" fill-opacity=".1" mask="url(#b)"/>
            <circle cx="61.5" cy="-11.5" r="4.5" fill="#FAFBFF" fill-opacity=".1" mask="url(#b)"/>
            <circle cx="34.5" cy="4.5" r="4.5" fill="#FAFBFF" fill-opacity=".1" mask="url(#b)"/>
            <circle cx="88.5" cy="4.5" r="4.5" fill="#FAFBFF" fill-opacity=".1" mask="url(#b)"/>
            <circle cx="7.5" cy="4.5" r="4.5" fill="#FAFBFF" fill-opacity=".1" mask="url(#b)"/>
            <circle cx="61.5" cy="4.5" r="4.5" fill="#FAFBFF" fill-opacity=".1" mask="url(#b)"/>
            <circle cx="34.5" cy="20.5" r="4.5" fill="#FAFBFF" fill-opacity=".1" mask="url(#b)"/>
            <circle cx="88.5" cy="20.5" r="4.5" fill="#FAFBFF" fill-opacity=".1" mask="url(#b)"/>
            <circle cx="7.5" cy="20.5" r="4.5" fill="#FAFBFF" fill-opacity=".1" mask="url(#b)"/>
            <circle cx="61.5" cy="20.5" r="4.5" fill="#FAFBFF" fill-opacity=".1" mask="url(#b)"/>
            <circle cx="34.5" cy="36.5" r="4.5" fill="#FAFBFF" fill-opacity=".1" mask="url(#b)"/>
            <circle cx="88.5" cy="36.5" r="4.5" fill="#FAFBFF" fill-opacity=".1" mask="url(#b)"/>
            <circle cx="7.5" cy="36.5" r="4.5" fill="#FAFBFF" fill-opacity=".1" mask="url(#b)"/>
            <circle cx="61.5" cy="36.5" r="4.5" fill="#FAFBFF" fill-opacity=".1" mask="url(#b)"/>
            <circle cx="34.5" cy="52.5" r="4.5" fill="#FAFBFF" fill-opacity=".1" mask="url(#b)"/>
            <circle cx="88.5" cy="52.5" r="4.5" fill="#FAFBFF" fill-opacity=".1" mask="url(#b)"/>
            <circle cx="7.5" cy="52.5" r="4.5" fill="#FAFBFF" fill-opacity=".1" mask="url(#b)"/>
            <circle cx="61.5" cy="52.5" r="4.5" fill="#FAFBFF" fill-opacity=".1" mask="url(#b)"/>
            <circle cx="34.5" cy="68.5" r="4.5" fill="#FAFBFF" fill-opacity=".1" mask="url(#b)"/>
            <circle cx="88.5" cy="68.5" r="4.5" fill="#FAFBFF" fill-opacity=".1" mask="url(#b)"/>
            <circle cx="7.5" cy="68.5" r="4.5" fill="#FAFBFF" fill-opacity=".1" mask="url(#b)"/>
            <circle cx="61.5" cy="68.5" r="4.5" fill="#FAFBFF" fill-opacity=".1" mask="url(#b)"/>
            <circle cx="34.5" cy="84.5" r="4.5" fill="#FAFBFF" fill-opacity=".1" mask="url(#b)"/>
            <circle cx="88.5" cy="84.5" r="4.5" fill="#FAFBFF" fill-opacity=".1" mask="url(#b)"/>
            <circle cx="7.5" cy="84.5" r="4.5" fill="#FAFBFF" fill-opacity=".1" mask="url(#b)"/>
            <circle cx="61.5" cy="84.5" r="4.5" fill="#FAFBFF" fill-opacity=".1" mask="url(#b)"/>
            <circle cx="34.5" cy="100.5" r="4.5" fill="#FAFBFF" fill-opacity=".1" mask="url(#b)"/>
            <circle cx="88.5" cy="100.5" r="4.5" fill="#FAFBFF" fill-opacity=".1" mask="url(#b)"/>
            <circle cx="7.5" cy="100.5" r="4.5" fill="#FAFBFF" fill-opacity=".1" mask="url(#b)"/>
            <circle cx="61.5" cy="100.5" r="4.5" fill="#FAFBFF" fill-opacity=".1" mask="url(#b)"/>
            <circle cx="34.5" cy="116.5" r="4.5" fill="#FAFBFF" fill-opacity=".1" mask="url(#b)"/>
            <circle cx="88.5" cy="116.5" r="4.5" fill="#FAFBFF" fill-opacity=".1" mask="url(#b)"/>
            <circle cx="7.5" cy="116.5" r="4.5" fill="#FAFBFF" fill-opacity=".1" mask="url(#b)"/>
            <circle cx="61.5" cy="116.5" r="4.5" fill="#FAFBFF" fill-opacity=".1" mask="url(#b)"/>
            <circle cx="20.5" cy="9.5" r="3.5" fill="#FAFBFF" fill-opacity=".1" mask="url(#b)"/>
            <circle cx="74.5" cy="8.5" r="3.5" fill="#FAFBFF" fill-opacity=".1" mask="url(#b)"/>
            <circle cx="-6.5" cy="9.5" r="3.5" fill="#FAFBFF" fill-opacity=".1" mask="url(#b)"/>
            <circle cx="47.5" cy="8.5" r="3.5" fill="#FAFBFF" fill-opacity=".1" mask="url(#b)"/>
            <circle cx="20.5" cy="21.5" r="3.5" fill="#FAFBFF" fill-opacity=".1" mask="url(#b)"/>
            <circle cx="74.5" cy="21.5" r="3.5" fill="#FAFBFF" fill-opacity=".1" mask="url(#b)"/>
            <circle cx="-6.5" cy="21.5" r="3.5" fill="#FAFBFF" fill-opacity=".1" mask="url(#b)"/>
            <circle cx="47.5" cy="21.5" r="3.5" fill="#FAFBFF" fill-opacity=".1" mask="url(#b)"/>
            <circle cx="20.5" cy="34.5" r="3.5" fill="#FAFBFF" fill-opacity=".1" mask="url(#b)"/>
            <circle cx="74.5" cy="33.5" r="3.5" fill="#FAFBFF" fill-opacity=".1" mask="url(#b)"/>
            <circle cx="-6.5" cy="34.5" r="3.5" fill="#FAFBFF" fill-opacity=".1" mask="url(#b)"/>
            <circle cx="47.5" cy="33.5" r="3.5" fill="#FAFBFF" fill-opacity=".1" mask="url(#b)"/>
            <circle cx="20.5" cy="46.5" r="3.5" fill="#FAFBFF" fill-opacity=".1" mask="url(#b)"/>
            <circle cx="74.5" cy="45.5" r="3.5" fill="#FAFBFF" fill-opacity=".1" mask="url(#b)"/>
            <circle cx="-6.5" cy="46.5" r="3.5" fill="#FAFBFF" fill-opacity=".1" mask="url(#b)"/>
            <circle cx="47.5" cy="45.5" r="3.5" fill="#FAFBFF" fill-opacity=".1" mask="url(#b)"/>
            <circle cx="20.5" cy="58.5" r="3.5" fill="#FAFBFF" fill-opacity=".1" mask="url(#b)"/>
            <circle cx="74.5" cy="58.5" r="3.5" fill="#FAFBFF" fill-opacity=".1" mask="url(#b)"/>
            <circle cx="-6.5" cy="58.5" r="3.5" fill="#FAFBFF" fill-opacity=".1" mask="url(#b)"/>
            <circle cx="47.5" cy="58.5" r="3.5" fill="#FAFBFF" fill-opacity=".1" mask="url(#b)"/>
            <circle cx="20.5" cy="71.5" r="3.5" fill="#FAFBFF" fill-opacity=".1" mask="url(#b)"/>
            <circle cx="74.5" cy="70.5" r="3.5" fill="#FAFBFF" fill-opacity=".1" mask="url(#b)"/>
            <circle cx="-6.5" cy="71.5" r="3.5" fill="#FAFBFF" fill-opacity=".1" mask="url(#b)"/>
            <circle cx="47.5" cy="70.5" r="3.5" fill="#FAFBFF" fill-opacity=".1" mask="url(#b)"/>
            <circle cx="20.5" cy="83.5" r="3.5" fill="#FAFBFF" fill-opacity=".1" mask="url(#b)"/>
            <circle cx="74.5" cy="83.5" r="3.5" fill="#FAFBFF" fill-opacity=".1" mask="url(#b)"/>
            <circle cx="-6.5" cy="83.5" r="3.5" fill="#FAFBFF" fill-opacity=".1" mask="url(#b)"/>
            <circle cx="47.5" cy="83.5" r="3.5" fill="#FAFBFF" fill-opacity=".1" mask="url(#b)"/>
            <circle cx="20.5" cy="95.5" r="3.5" fill="#FAFBFF" fill-opacity=".1" mask="url(#b)"/>
            <circle cx="74.5" cy="95.5" r="3.5" fill="#FAFBFF" fill-opacity=".1" mask="url(#b)"/>
            <circle cx="-6.5" cy="95.5" r="3.5" fill="#FAFBFF" fill-opacity=".1" mask="url(#b)"/>
            <circle cx="47.5" cy="95.5" r="3.5" fill="#FAFBFF" fill-opacity=".1" mask="url(#b)"/>
            <circle cx="128.5" cy="-4.5" r="3.5" fill="#FAFBFF" fill-opacity=".1" mask="url(#b)"/>
            <circle cx="101.5" cy="-4.5" r="3.5" fill="#FAFBFF" fill-opacity=".1" mask="url(#b)"/>
            <circle cx="142.5" cy="-11.5" r="4.5" fill="#FAFBFF" fill-opacity=".1" mask="url(#b)"/>
            <circle cx="115.5" cy="-11.5" r="4.5" fill="#FAFBFF" fill-opacity=".1" mask="url(#b)"/>
            <circle cx="142.5" cy="4.5" r="4.5" fill="#FAFBFF" fill-opacity=".1" mask="url(#b)"/>
            <circle cx="115.5" cy="4.5" r="4.5" fill="#FAFBFF" fill-opacity=".1" mask="url(#b)"/>
            <circle cx="142.5" cy="19.5" r="4.5" fill="#FAFBFF" fill-opacity=".1" mask="url(#b)"/>
            <circle cx="115.5" cy="19.5" r="4.5" fill="#FAFBFF" fill-opacity=".1" mask="url(#b)"/>
            <circle cx="142.5" cy="35.5" r="4.5" fill="#FAFBFF" fill-opacity=".1" mask="url(#b)"/>
            <circle cx="115.5" cy="35.5" r="4.5" fill="#FAFBFF" fill-opacity=".1" mask="url(#b)"/>
            <circle cx="142.5" cy="51.5" r="4.5" fill="#FAFBFF" fill-opacity=".1" mask="url(#b)"/>
            <circle cx="115.5" cy="51.5" r="4.5" fill="#FAFBFF" fill-opacity=".1" mask="url(#b)"/>
            <circle cx="142.5" cy="67.5" r="4.5" fill="#FAFBFF" fill-opacity=".1" mask="url(#b)"/>
            <circle cx="115.5" cy="67.5" r="4.5" fill="#FAFBFF" fill-opacity=".1" mask="url(#b)"/>
            <circle cx="142.5" cy="83.5" r="4.5" fill="#FAFBFF" fill-opacity=".1" mask="url(#b)"/>
            <circle cx="115.5" cy="83.5" r="4.5" fill="#FAFBFF" fill-opacity=".1" mask="url(#b)"/>
            <circle cx="142.5" cy="99.5" r="4.5" fill="#FAFBFF" fill-opacity=".1" mask="url(#b)"/>
            <circle cx="115.5" cy="99.5" r="4.5" fill="#FAFBFF" fill-opacity=".1" mask="url(#b)"/>
            <circle cx="142.5" cy="115.5" r="4.5" fill="#FAFBFF" fill-opacity=".1" mask="url(#b)"/>
            <circle cx="115.5" cy="115.5" r="4.5" fill="#FAFBFF" fill-opacity=".1" mask="url(#b)"/>
            <circle cx="128.5" cy="8.5" r="3.5" fill="#FAFBFF" fill-opacity=".1" mask="url(#b)"/>
            <circle cx="101.5" cy="8.5" r="3.5" fill="#FAFBFF" fill-opacity=".1" mask="url(#b)"/>
            <circle cx="128.5" cy="20.5" r="3.5" fill="#FAFBFF" fill-opacity=".1" mask="url(#b)"/>
            <circle cx="101.5" cy="20.5" r="3.5" fill="#FAFBFF" fill-opacity=".1" mask="url(#b)"/>
            <circle cx="128.5" cy="33.5" r="3.5" fill="#FAFBFF" fill-opacity=".1" mask="url(#b)"/>
            <circle cx="101.5" cy="33.5" r="3.5" fill="#FAFBFF" fill-opacity=".1" mask="url(#b)"/>
            <circle cx="128.5" cy="45.5" r="3.5" fill="#FAFBFF" fill-opacity=".1" mask="url(#b)"/>
            <circle cx="101.5" cy="45.5" r="3.5" fill="#FAFBFF" fill-opacity=".1" mask="url(#b)"/>
            <circle cx="128.5" cy="57.5" r="3.5" fill="#FAFBFF" fill-opacity=".1" mask="url(#b)"/>
            <circle cx="101.5" cy="57.5" r="3.5" fill="#FAFBFF" fill-opacity=".1" mask="url(#b)"/>
            <circle cx="128.5" cy="70.5" r="3.5" fill="#FAFBFF" fill-opacity=".1" mask="url(#b)"/>
            <circle cx="101.5" cy="70.5" r="3.5" fill="#FAFBFF" fill-opacity=".1" mask="url(#b)"/>
            <circle cx="128.5" cy="82.5" r="3.5" fill="#FAFBFF" fill-opacity=".1" mask="url(#b)"/>
            <circle cx="101.5" cy="82.5" r="3.5" fill="#FAFBFF" fill-opacity=".1" mask="url(#b)"/>
            <circle cx="128.5" cy="95.5" r="3.5" fill="#FAFBFF" fill-opacity=".1" mask="url(#b)"/>
            <circle cx="101.5" cy="95.5" r="3.5" fill="#FAFBFF" fill-opacity=".1" mask="url(#b)"/>
        </g>
        <g transform="rotate(-31.293 1845.42 -814.276)">
            <mask id="d" fill="#fff">
                <use xlink:href="#c"/>
            </mask>
            <use fill="#FAFBFF" fill-opacity="0" xlink:href="#c"/>
            <circle cx="58" cy="-9" r="10" fill="#FAFBFF" fill-opacity=".1" mask="url(#d)"/>
            <circle cx="210" cy="-10" r="10" fill="#FAFBFF" fill-opacity=".1" mask="url(#d)"/>
            <circle cx="-17" cy="-9" r="10" fill="#FAFBFF" fill-opacity=".1" mask="url(#d)"/>
            <circle cx="134" cy="-10" r="10" fill="#FAFBFF" fill-opacity=".1" mask="url(#d)"/>
            <circle cx="96.5" cy="-30.5" r="12.5" fill="#FAFBFF" fill-opacity=".1" mask="url(#d)"/>
            <circle cx="248.5" cy="-32.5" r="12.5" fill="#FAFBFF" fill-opacity=".1" mask="url(#d)"/>
            <circle cx="21.5" cy="-30.5" r="12.5" fill="#FAFBFF" fill-opacity=".1" mask="url(#d)"/>
            <circle cx="172.5" cy="-32.5" r="12.5" fill="#FAFBFF" fill-opacity=".1" mask="url(#d)"/>
            <circle cx="96.5" cy="13.5" r="12.5" fill="#FAFBFF" fill-opacity=".1" mask="url(#d)"/>
            <circle cx="248.5" cy="12.5" r="12.5" fill="#FAFBFF" fill-opacity=".1" mask="url(#d)"/>
            <circle cx="21.5" cy="13.5" r="12.5" fill="#FAFBFF" fill-opacity=".1" mask="url(#d)"/>
            <circle cx="172.5" cy="12.5" r="12.5" fill="#FAFBFF" fill-opacity=".1" mask="url(#d)"/>
            <circle cx="96.5" cy="58.5" r="12.5" fill="#FAFBFF" fill-opacity=".1" mask="url(#d)"/>
            <circle cx="248.5" cy="57.5" r="12.5" fill="#FAFBFF" fill-opacity=".1" mask="url(#d)"/>
            <circle cx="21.5" cy="58.5" r="12.5" fill="#FAFBFF" fill-opacity=".1" mask="url(#d)"/>
            <circle cx="172.5" cy="57.5" r="12.5" fill="#FAFBFF" fill-opacity=".1" mask="url(#d)"/>
            <circle cx="96.5" cy="103.5" r="12.5" fill="#FAFBFF" fill-opacity=".1" mask="url(#d)"/>
            <circle cx="248.5" cy="101.5" r="12.5" fill="#FAFBFF" fill-opacity=".1" mask="url(#d)"/>
            <circle cx="21.5" cy="103.5" r="12.5" fill="#FAFBFF" fill-opacity=".1" mask="url(#d)"/>
            <circle cx="172.5" cy="101.5" r="12.5" fill="#FAFBFF" fill-opacity=".1" mask="url(#d)"/>
            <circle cx="96.5" cy="147.5" r="12.5" fill="#FAFBFF" fill-opacity=".1" mask="url(#d)"/>
            <circle cx="248.5" cy="146.5" r="12.5" fill="#FAFBFF" fill-opacity=".1" mask="url(#d)"/>
            <circle cx="21.5" cy="147.5" r="12.5" fill="#FAFBFF" fill-opacity=".1" mask="url(#d)"/>
            <circle cx="172.5" cy="146.5" r="12.5" fill="#FAFBFF" fill-opacity=".1" mask="url(#d)"/>
            <circle cx="96.5" cy="192.5" r="12.5" fill="#FAFBFF" fill-opacity=".1" mask="url(#d)"/>
            <circle cx="248.5" cy="191.5" r="12.5" fill="#FAFBFF" fill-opacity=".1" mask="url(#d)"/>
            <circle cx="21.5" cy="192.5" r="12.5" fill="#FAFBFF" fill-opacity=".1" mask="url(#d)"/>
            <circle cx="172.5" cy="191.5" r="12.5" fill="#FAFBFF" fill-opacity=".1" mask="url(#d)"/>
            <circle cx="96.5" cy="237.5" r="12.5" fill="#FAFBFF" fill-opacity=".1" mask="url(#d)"/>
            <circle cx="248.5" cy="236.5" r="12.5" fill="#FAFBFF" fill-opacity=".1" mask="url(#d)"/>
            <circle cx="21.5" cy="237.5" r="12.5" fill="#FAFBFF" fill-opacity=".1" mask="url(#d)"/>
            <circle cx="172.5" cy="236.5" r="12.5" fill="#FAFBFF" fill-opacity=".1" mask="url(#d)"/>
            <circle cx="96.5" cy="282.5" r="12.5" fill="#FAFBFF" fill-opacity=".1" mask="url(#d)"/>
            <circle cx="248.5" cy="280.5" r="12.5" fill="#FAFBFF" fill-opacity=".1" mask="url(#d)"/>
            <circle cx="21.5" cy="282.5" r="12.5" fill="#FAFBFF" fill-opacity=".1" mask="url(#d)"/>
            <circle cx="172.5" cy="280.5" r="12.5" fill="#FAFBFF" fill-opacity=".1" mask="url(#d)"/>
            <circle cx="96.5" cy="326.5" r="12.5" fill="#FAFBFF" fill-opacity=".1" mask="url(#d)"/>
            <circle cx="248.5" cy="325.5" r="12.5" fill="#FAFBFF" fill-opacity=".1" mask="url(#d)"/>
            <circle cx="21.5" cy="326.5" r="12.5" fill="#FAFBFF" fill-opacity=".1" mask="url(#d)"/>
            <circle cx="172.5" cy="325.5" r="12.5" fill="#FAFBFF" fill-opacity=".1" mask="url(#d)"/>
            <circle cx="58" cy="26" r="10" fill="#FAFBFF" fill-opacity=".1" mask="url(#d)"/>
            <circle cx="210" cy="25" r="10" fill="#FAFBFF" fill-opacity=".1" mask="url(#d)"/>
            <circle cx="-17" cy="26" r="10" fill="#FAFBFF" fill-opacity=".1" mask="url(#d)"/>
            <circle cx="134" cy="25" r="10" fill="#FAFBFF" fill-opacity=".1" mask="url(#d)"/>
            <circle cx="58" cy="61" r="10" fill="#FAFBFF" fill-opacity=".1" mask="url(#d)"/>
            <circle cx="210" cy="60" r="10" fill="#FAFBFF" fill-opacity=".1" mask="url(#d)"/>
            <circle cx="-17" cy="61" r="10" fill="#FAFBFF" fill-opacity=".1" mask="url(#d)"/>
            <circle cx="134" cy="60" r="10" fill="#FAFBFF" fill-opacity=".1" mask="url(#d)"/>
            <circle cx="58" cy="96" r="10" fill="#FAFBFF" fill-opacity=".1" mask="url(#d)"/>
            <circle cx="210" cy="94" r="10" fill="#FAFBFF" fill-opacity=".1" mask="url(#d)"/>
            <circle cx="-17" cy="96" r="10" fill="#FAFBFF" fill-opacity=".1" mask="url(#d)"/>
            <circle cx="134" cy="94" r="10" fill="#FAFBFF" fill-opacity=".1" mask="url(#d)"/>
            <circle cx="58" cy="131" r="10" fill="#FAFBFF" fill-opacity=".1" mask="url(#d)"/>
            <circle cx="210" cy="129" r="10" fill="#FAFBFF" fill-opacity=".1" mask="url(#d)"/>
            <circle cx="-17" cy="131" r="10" fill="#FAFBFF" fill-opacity=".1" mask="url(#d)"/>
            <circle cx="134" cy="129" r="10" fill="#FAFBFF" fill-opacity=".1" mask="url(#d)"/>
            <circle cx="58" cy="165" r="10" fill="#FAFBFF" fill-opacity=".1" mask="url(#d)"/>
            <circle cx="210" cy="164" r="10" fill="#FAFBFF" fill-opacity=".1" mask="url(#d)"/>
            <circle cx="-17" cy="165" r="10" fill="#FAFBFF" fill-opacity=".1" mask="url(#d)"/>
            <circle cx="134" cy="164" r="10" fill="#FAFBFF" fill-opacity=".1" mask="url(#d)"/>
            <circle cx="58" cy="200" r="10" fill="#FAFBFF" fill-opacity=".1" mask="url(#d)"/>
            <circle cx="210" cy="199" r="10" fill="#FAFBFF" fill-opacity=".1" mask="url(#d)"/>
            <circle cx="-17" cy="200" r="10" fill="#FAFBFF" fill-opacity=".1" mask="url(#d)"/>
            <circle cx="134" cy="199" r="10" fill="#FAFBFF" fill-opacity=".1" mask="url(#d)"/>
            <circle cx="58" cy="235" r="10" fill="#FAFBFF" fill-opacity=".1" mask="url(#d)"/>
            <circle cx="210" cy="234" r="10" fill="#FAFBFF" fill-opacity=".1" mask="url(#d)"/>
            <circle cx="-17" cy="235" r="10" fill="#FAFBFF" fill-opacity=".1" mask="url(#d)"/>
            <circle cx="134" cy="234" r="10" fill="#FAFBFF" fill-opacity=".1" mask="url(#d)"/>
            <circle cx="58" cy="270" r="10" fill="#FAFBFF" fill-opacity=".1" mask="url(#d)"/>
            <circle cx="210" cy="268" r="10" fill="#FAFBFF" fill-opacity=".1" mask="url(#d)"/>
            <circle cx="-17" cy="270" r="10" fill="#FAFBFF" fill-opacity=".1" mask="url(#d)"/>
            <circle cx="134" cy="268" r="10" fill="#FAFBFF" fill-opacity=".1" mask="url(#d)"/>
            <circle cx="362" cy="-11" r="10" fill="#FAFBFF" fill-opacity=".1" mask="url(#d)"/>
            <circle cx="286" cy="-11" r="10" fill="#FAFBFF" fill-opacity=".1" mask="url(#d)"/>
            <circle cx="400.5" cy="-33.5" r="12.5" fill="#FAFBFF" fill-opacity=".1" mask="url(#d)"/>
            <circle cx="324.5" cy="-33.5" r="12.5" fill="#FAFBFF" fill-opacity=".1" mask="url(#d)"/>
            <circle cx="400.5" cy="11.5" r="12.5" fill="#FAFBFF" fill-opacity=".1" mask="url(#d)"/>
            <circle cx="324.5" cy="11.5" r="12.5" fill="#FAFBFF" fill-opacity=".1" mask="url(#d)"/>
            <circle cx="400.5" cy="55.5" r="12.5" fill="#FAFBFF" fill-opacity=".1" mask="url(#d)"/>
            <circle cx="324.5" cy="55.5" r="12.5" fill="#FAFBFF" fill-opacity=".1" mask="url(#d)"/>
            <circle cx="400.5" cy="100.5" r="12.5" fill="#FAFBFF" fill-opacity=".1" mask="url(#d)"/>
            <circle cx="324.5" cy="100.5" r="12.5" fill="#FAFBFF" fill-opacity=".1" mask="url(#d)"/>
            <circle cx="400.5" cy="145.5" r="12.5" fill="#FAFBFF" fill-opacity=".1" mask="url(#d)"/>
            <circle cx="324.5" cy="145.5" r="12.5" fill="#FAFBFF" fill-opacity=".1" mask="url(#d)"/>
            <circle cx="324.5" cy="190.5" r="12.5" fill="#FAFBFF" fill-opacity=".1" mask="url(#d)"/>
            <circle cx="324.5" cy="234.5" r="12.5" fill="#FAFBFF" fill-opacity=".1" mask="url(#d)"/>
            <circle cx="362" cy="24" r="10" fill="#FAFBFF" fill-opacity=".1" mask="url(#d)"/>
            <circle cx="286" cy="24" r="10" fill="#FAFBFF" fill-opacity=".1" mask="url(#d)"/>
            <circle cx="362" cy="58" r="10" fill="#FAFBFF" fill-opacity=".1" mask="url(#d)"/>
            <circle cx="286" cy="58" r="10" fill="#FAFBFF" fill-opacity=".1" mask="url(#d)"/>
            <circle cx="362" cy="93" r="10" fill="#FAFBFF" fill-opacity=".1" mask="url(#d)"/>
            <circle cx="286" cy="93" r="10" fill="#FAFBFF" fill-opacity=".1" mask="url(#d)"/>
            <circle cx="362" cy="128" r="10" fill="#FAFBFF" fill-opacity=".1" mask="url(#d)"/>
            <circle cx="286" cy="128" r="10" fill="#FAFBFF" fill-opacity=".1" mask="url(#d)"/>
            <circle cx="362" cy="163" r="10" fill="#FAFBFF" fill-opacity=".1" mask="url(#d)"/>
            <circle cx="286" cy="163" r="10" fill="#FAFBFF" fill-opacity=".1" mask="url(#d)"/>
            <circle cx="362" cy="198" r="10" fill="#FAFBFF" fill-opacity=".1" mask="url(#d)"/>
            <circle cx="286" cy="198" r="10" fill="#FAFBFF" fill-opacity=".1" mask="url(#d)"/>
            <circle cx="286" cy="232" r="10" fill="#FAFBFF" fill-opacity=".1" mask="url(#d)"/>
            <circle cx="286" cy="267" r="10" fill="#FAFBFF" fill-opacity=".1" mask="url(#d)"/>
        </g>
        <g transform="rotate(-110.822 601.019 71.184)">
            <mask id="f" fill="#fff">
                <use xlink:href="#e"/>
            </mask>
            <use fill="#FAFBFF" fill-opacity="0" xlink:href="#e"/>
            <circle cx="48.5" cy="-7.5" r="8.5" fill="#FAFBFF" fill-opacity=".1" mask="url(#f)"/>
            <circle cx="174.5" cy="-8.5" r="8.5" fill="#FAFBFF" fill-opacity=".1" mask="url(#f)"/>
            <circle cx="-14.5" cy="-7.5" r="8.5" fill="#FAFBFF" fill-opacity=".1" mask="url(#f)"/>
            <circle cx="111.5" cy="-8.5" r="8.5" fill="#FAFBFF" fill-opacity=".1" mask="url(#f)"/>
            <circle cx="80.5" cy="-25.5" r="10.5" fill="#FAFBFF" fill-opacity=".1" mask="url(#f)"/>
            <circle cx="206.5" cy="-26.5" r="10.5" fill="#FAFBFF" fill-opacity=".1" mask="url(#f)"/>
            <circle cx="17.5" cy="-25.5" r="10.5" fill="#FAFBFF" fill-opacity=".1" mask="url(#f)"/>
            <circle cx="143.5" cy="-26.5" r="10.5" fill="#FAFBFF" fill-opacity=".1" mask="url(#f)"/>
            <circle cx="80.5" cy="11.5" r="10.5" fill="#FAFBFF" fill-opacity=".1" mask="url(#f)"/>
            <circle cx="206.5" cy="10.5" r="10.5" fill="#FAFBFF" fill-opacity=".1" mask="url(#f)"/>
            <circle cx="17.5" cy="11.5" r="10.5" fill="#FAFBFF" fill-opacity=".1" mask="url(#f)"/>
            <circle cx="143.5" cy="10.5" r="10.5" fill="#FAFBFF" fill-opacity=".1" mask="url(#f)"/>
            <circle cx="80.5" cy="48.5" r="10.5" fill="#FAFBFF" fill-opacity=".1" mask="url(#f)"/>
            <circle cx="206.5" cy="47.5" r="10.5" fill="#FAFBFF" fill-opacity=".1" mask="url(#f)"/>
            <circle cx="17.5" cy="48.5" r="10.5" fill="#FAFBFF" fill-opacity=".1" mask="url(#f)"/>
            <circle cx="143.5" cy="47.5" r="10.5" fill="#FAFBFF" fill-opacity=".1" mask="url(#f)"/>
            <circle cx="80.5" cy="85.5" r="10.5" fill="#FAFBFF" fill-opacity=".1" mask="url(#f)"/>
            <circle cx="206.5" cy="84.5" r="10.5" fill="#FAFBFF" fill-opacity=".1" mask="url(#f)"/>
            <circle cx="17.5" cy="85.5" r="10.5" fill="#FAFBFF" fill-opacity=".1" mask="url(#f)"/>
            <circle cx="143.5" cy="84.5" r="10.5" fill="#FAFBFF" fill-opacity=".1" mask="url(#f)"/>
            <circle cx="80.5" cy="123.5" r="10.5" fill="#FAFBFF" fill-opacity=".1" mask="url(#f)"/>
            <circle cx="206.5" cy="122.5" r="10.5" fill="#FAFBFF" fill-opacity=".1" mask="url(#f)"/>
            <circle cx="17.5" cy="123.5" r="10.5" fill="#FAFBFF" fill-opacity=".1" mask="url(#f)"/>
            <circle cx="143.5" cy="122.5" r="10.5" fill="#FAFBFF" fill-opacity=".1" mask="url(#f)"/>
            <circle cx="80.5" cy="160.5" r="10.5" fill="#FAFBFF" fill-opacity=".1" mask="url(#f)"/>
            <circle cx="206.5" cy="159.5" r="10.5" fill="#FAFBFF" fill-opacity=".1" mask="url(#f)"/>
            <circle cx="17.5" cy="160.5" r="10.5" fill="#FAFBFF" fill-opacity=".1" mask="url(#f)"/>
            <circle cx="143.5" cy="159.5" r="10.5" fill="#FAFBFF" fill-opacity=".1" mask="url(#f)"/>
            <circle cx="80.5" cy="197.5" r="10.5" fill="#FAFBFF" fill-opacity=".1" mask="url(#f)"/>
            <circle cx="206.5" cy="196.5" r="10.5" fill="#FAFBFF" fill-opacity=".1" mask="url(#f)"/>
            <circle cx="17.5" cy="197.5" r="10.5" fill="#FAFBFF" fill-opacity=".1" mask="url(#f)"/>
            <circle cx="143.5" cy="196.5" r="10.5" fill="#FAFBFF" fill-opacity=".1" mask="url(#f)"/>
            <circle cx="80.5" cy="234.5" r="10.5" fill="#FAFBFF" fill-opacity=".1" mask="url(#f)"/>
            <circle cx="206.5" cy="233.5" r="10.5" fill="#FAFBFF" fill-opacity=".1" mask="url(#f)"/>
            <circle cx="17.5" cy="234.5" r="10.5" fill="#FAFBFF" fill-opacity=".1" mask="url(#f)"/>
            <circle cx="143.5" cy="233.5" r="10.5" fill="#FAFBFF" fill-opacity=".1" mask="url(#f)"/>
            <circle cx="80.5" cy="272.5" r="10.5" fill="#FAFBFF" fill-opacity=".1" mask="url(#f)"/>
            <circle cx="206.5" cy="271.5" r="10.5" fill="#FAFBFF" fill-opacity=".1" mask="url(#f)"/>
            <circle cx="17.5" cy="272.5" r="10.5" fill="#FAFBFF" fill-opacity=".1" mask="url(#f)"/>
            <circle cx="143.5" cy="271.5" r="10.5" fill="#FAFBFF" fill-opacity=".1" mask="url(#f)"/>
            <circle cx="48.5" cy="21.5" r="8.5" fill="#FAFBFF" fill-opacity=".1" mask="url(#f)"/>
            <circle cx="174.5" cy="20.5" r="8.5" fill="#FAFBFF" fill-opacity=".1" mask="url(#f)"/>
            <circle cx="-14.5" cy="21.5" r="8.5" fill="#FAFBFF" fill-opacity=".1" mask="url(#f)"/>
            <circle cx="111.5" cy="20.5" r="8.5" fill="#FAFBFF" fill-opacity=".1" mask="url(#f)"/>
            <circle cx="48.5" cy="50.5" r="8.5" fill="#FAFBFF" fill-opacity=".1" mask="url(#f)"/>
            <circle cx="174.5" cy="49.5" r="8.5" fill="#FAFBFF" fill-opacity=".1" mask="url(#f)"/>
            <circle cx="-14.5" cy="50.5" r="8.5" fill="#FAFBFF" fill-opacity=".1" mask="url(#f)"/>
            <circle cx="111.5" cy="49.5" r="8.5" fill="#FAFBFF" fill-opacity=".1" mask="url(#f)"/>
            <circle cx="48.5" cy="79.5" r="8.5" fill="#FAFBFF" fill-opacity=".1" mask="url(#f)"/>
            <circle cx="174.5" cy="78.5" r="8.5" fill="#FAFBFF" fill-opacity=".1" mask="url(#f)"/>
            <circle cx="-14.5" cy="79.5" r="8.5" fill="#FAFBFF" fill-opacity=".1" mask="url(#f)"/>
            <circle cx="111.5" cy="78.5" r="8.5" fill="#FAFBFF" fill-opacity=".1" mask="url(#f)"/>
            <circle cx="48.5" cy="108.5" r="8.5" fill="#FAFBFF" fill-opacity=".1" mask="url(#f)"/>
            <circle cx="174.5" cy="107.5" r="8.5" fill="#FAFBFF" fill-opacity=".1" mask="url(#f)"/>
            <circle cx="-14.5" cy="108.5" r="8.5" fill="#FAFBFF" fill-opacity=".1" mask="url(#f)"/>
            <circle cx="111.5" cy="107.5" r="8.5" fill="#FAFBFF" fill-opacity=".1" mask="url(#f)"/>
            <circle cx="48.5" cy="137.5" r="8.5" fill="#FAFBFF" fill-opacity=".1" mask="url(#f)"/>
            <circle cx="174.5" cy="136.5" r="8.5" fill="#FAFBFF" fill-opacity=".1" mask="url(#f)"/>
            <circle cx="-14.5" cy="137.5" r="8.5" fill="#FAFBFF" fill-opacity=".1" mask="url(#f)"/>
            <circle cx="111.5" cy="136.5" r="8.5" fill="#FAFBFF" fill-opacity=".1" mask="url(#f)"/>
            <circle cx="48.5" cy="166.5" r="8.5" fill="#FAFBFF" fill-opacity=".1" mask="url(#f)"/>
            <circle cx="174.5" cy="165.5" r="8.5" fill="#FAFBFF" fill-opacity=".1" mask="url(#f)"/>
            <circle cx="-14.5" cy="166.5" r="8.5" fill="#FAFBFF" fill-opacity=".1" mask="url(#f)"/>
            <circle cx="111.5" cy="165.5" r="8.5" fill="#FAFBFF" fill-opacity=".1" mask="url(#f)"/>
            <circle cx="48.5" cy="195.5" r="8.5" fill="#FAFBFF" fill-opacity=".1" mask="url(#f)"/>
            <circle cx="174.5" cy="194.5" r="8.5" fill="#FAFBFF" fill-opacity=".1" mask="url(#f)"/>
            <circle cx="-14.5" cy="195.5" r="8.5" fill="#FAFBFF" fill-opacity=".1" mask="url(#f)"/>
            <circle cx="111.5" cy="194.5" r="8.5" fill="#FAFBFF" fill-opacity=".1" mask="url(#f)"/>
            <circle cx="48.5" cy="224.5" r="8.5" fill="#FAFBFF" fill-opacity=".1" mask="url(#f)"/>
            <circle cx="174.5" cy="223.5" r="8.5" fill="#FAFBFF" fill-opacity=".1" mask="url(#f)"/>
            <circle cx="-14.5" cy="224.5" r="8.5" fill="#FAFBFF" fill-opacity=".1" mask="url(#f)"/>
            <circle cx="111.5" cy="223.5" r="8.5" fill="#FAFBFF" fill-opacity=".1" mask="url(#f)"/>
            <circle cx="301.5" cy="-9.5" r="8.5" fill="#FAFBFF" fill-opacity=".1" mask="url(#f)"/>
            <circle cx="238.5" cy="-9.5" r="8.5" fill="#FAFBFF" fill-opacity=".1" mask="url(#f)"/>
            <circle cx="333.5" cy="-27.5" r="10.5" fill="#FAFBFF" fill-opacity=".1" mask="url(#f)"/>
            <circle cx="270.5" cy="-27.5" r="10.5" fill="#FAFBFF" fill-opacity=".1" mask="url(#f)"/>
            <circle cx="333.5" cy="9.5" r="10.5" fill="#FAFBFF" fill-opacity=".1" mask="url(#f)"/>
            <circle cx="270.5" cy="9.5" r="10.5" fill="#FAFBFF" fill-opacity=".1" mask="url(#f)"/>
            <circle cx="333.5" cy="46.5" r="10.5" fill="#FAFBFF" fill-opacity=".1" mask="url(#f)"/>
            <circle cx="270.5" cy="46.5" r="10.5" fill="#FAFBFF" fill-opacity=".1" mask="url(#f)"/>
            <circle cx="333.5" cy="83.5" r="10.5" fill="#FAFBFF" fill-opacity=".1" mask="url(#f)"/>
            <circle cx="270.5" cy="83.5" r="10.5" fill="#FAFBFF" fill-opacity=".1" mask="url(#f)"/>
            <circle cx="333.5" cy="121.5" r="10.5" fill="#FAFBFF" fill-opacity=".1" mask="url(#f)"/>
            <circle cx="270.5" cy="121.5" r="10.5" fill="#FAFBFF" fill-opacity=".1" mask="url(#f)"/>
            <circle cx="333.5" cy="158.5" r="10.5" fill="#FAFBFF" fill-opacity=".1" mask="url(#f)"/>
            <circle cx="270.5" cy="158.5" r="10.5" fill="#FAFBFF" fill-opacity=".1" mask="url(#f)"/>
            <circle cx="333.5" cy="195.5" r="10.5" fill="#FAFBFF" fill-opacity=".1" mask="url(#f)"/>
            <circle cx="270.5" cy="195.5" r="10.5" fill="#FAFBFF" fill-opacity=".1" mask="url(#f)"/>
            <circle cx="333.5" cy="232.5" r="10.5" fill="#FAFBFF" fill-opacity=".1" mask="url(#f)"/>
            <circle cx="270.5" cy="232.5" r="10.5" fill="#FAFBFF" fill-opacity=".1" mask="url(#f)"/>
            <circle cx="333.5" cy="270.5" r="10.5" fill="#FAFBFF" fill-opacity=".1" mask="url(#f)"/>
            <circle cx="270.5" cy="270.5" r="10.5" fill="#FAFBFF" fill-opacity=".1" mask="url(#f)"/>
            <circle cx="301.5" cy="19.5" r="8.5" fill="#FAFBFF" fill-opacity=".1" mask="url(#f)"/>
            <circle cx="238.5" cy="19.5" r="8.5" fill="#FAFBFF" fill-opacity=".1" mask="url(#f)"/>
            <circle cx="301.5" cy="48.5" r="8.5" fill="#FAFBFF" fill-opacity=".1" mask="url(#f)"/>
            <circle cx="238.5" cy="48.5" r="8.5" fill="#FAFBFF" fill-opacity=".1" mask="url(#f)"/>
            <circle cx="301.5" cy="77.5" r="8.5" fill="#FAFBFF" fill-opacity=".1" mask="url(#f)"/>
            <circle cx="238.5" cy="77.5" r="8.5" fill="#FAFBFF" fill-opacity=".1" mask="url(#f)"/>
            <circle cx="301.5" cy="106.5" r="8.5" fill="#FAFBFF" fill-opacity=".1" mask="url(#f)"/>
            <circle cx="238.5" cy="106.5" r="8.5" fill="#FAFBFF" fill-opacity=".1" mask="url(#f)"/>
            <circle cx="301.5" cy="135.5" r="8.5" fill="#FAFBFF" fill-opacity=".1" mask="url(#f)"/>
            <circle cx="238.5" cy="135.5" r="8.5" fill="#FAFBFF" fill-opacity=".1" mask="url(#f)"/>
            <circle cx="301.5" cy="164.5" r="8.5" fill="#FAFBFF" fill-opacity=".1" mask="url(#f)"/>
            <circle cx="238.5" cy="164.5" r="8.5" fill="#FAFBFF" fill-opacity=".1" mask="url(#f)"/>
            <circle cx="301.5" cy="193.5" r="8.5" fill="#FAFBFF" fill-opacity=".1" mask="url(#f)"/>
            <circle cx="238.5" cy="193.5" r="8.5" fill="#FAFBFF" fill-opacity=".1" mask="url(#f)"/>
            <circle cx="301.5" cy="222.5" r="8.5" fill="#FAFBFF" fill-opacity=".1" mask="url(#f)"/>
            <circle cx="238.5" cy="222.5" r="8.5" fill="#FAFBFF" fill-opacity=".1" mask="url(#f)"/>
        </g>
        <g transform="rotate(60.785 180.064 307.936)">
            <mask id="h" fill="#fff">
                <use xlink:href="#g"/>
            </mask>
            <use fill="#FAFBFF" fill-opacity="0" xlink:href="#g"/>
            <circle cx="83" cy="-12" r="14" fill="#FAFBFF" fill-opacity=".1" mask="url(#h)"/>
            <circle cx="297" cy="-14" r="14" fill="#FAFBFF" fill-opacity=".1" mask="url(#h)"/>
            <circle cx="190" cy="-14" r="14" fill="#FAFBFF" fill-opacity=".1" mask="url(#h)"/>
            <circle cx="136.5" cy="-44.5" r="17.5" fill="#FAFBFF" fill-opacity=".1" mask="url(#h)"/>
            <circle cx="351.5" cy="-45.5" r="17.5" fill="#FAFBFF" fill-opacity=".1" mask="url(#h)"/>
            <circle cx="29.5" cy="-44.5" r="17.5" fill="#FAFBFF" fill-opacity=".1" mask="url(#h)"/>
            <circle cx="244.5" cy="-45.5" r="17.5" fill="#FAFBFF" fill-opacity=".1" mask="url(#h)"/>
            <circle cx="136.5" cy="19.5" r="17.5" fill="#FAFBFF" fill-opacity=".1" mask="url(#h)"/>
            <circle cx="351.5" cy="17.5" r="17.5" fill="#FAFBFF" fill-opacity=".1" mask="url(#h)"/>
            <circle cx="29.5" cy="19.5" r="17.5" fill="#FAFBFF" fill-opacity=".1" mask="url(#h)"/>
            <circle cx="244.5" cy="17.5" r="17.5" fill="#FAFBFF" fill-opacity=".1" mask="url(#h)"/>
            <circle cx="136.5" cy="82.5" r="17.5" fill="#FAFBFF" fill-opacity=".1" mask="url(#h)"/>
            <circle cx="351.5" cy="80.5" r="17.5" fill="#FAFBFF" fill-opacity=".1" mask="url(#h)"/>
            <circle cx="29.5" cy="82.5" r="17.5" fill="#FAFBFF" fill-opacity=".1" mask="url(#h)"/>
            <circle cx="244.5" cy="80.5" r="17.5" fill="#FAFBFF" fill-opacity=".1" mask="url(#h)"/>
            <circle cx="136.5" cy="145.5" r="17.5" fill="#FAFBFF" fill-opacity=".1" mask="url(#h)"/>
            <circle cx="351.5" cy="144.5" r="17.5" fill="#FAFBFF" fill-opacity=".1" mask="url(#h)"/>
            <circle cx="29.5" cy="145.5" r="17.5" fill="#FAFBFF" fill-opacity=".1" mask="url(#h)"/>
            <circle cx="244.5" cy="144.5" r="17.5" fill="#FAFBFF" fill-opacity=".1" mask="url(#h)"/>
            <circle cx="136.5" cy="209.5" r="17.5" fill="#FAFBFF" fill-opacity=".1" mask="url(#h)"/>
            <circle cx="351.5" cy="207.5" r="17.5" fill="#FAFBFF" fill-opacity=".1" mask="url(#h)"/>
            <circle cx="29.5" cy="209.5" r="17.5" fill="#FAFBFF" fill-opacity=".1" mask="url(#h)"/>
            <circle cx="244.5" cy="207.5" r="17.5" fill="#FAFBFF" fill-opacity=".1" mask="url(#h)"/>
            <circle cx="136.5" cy="272.5" r="17.5" fill="#FAFBFF" fill-opacity=".1" mask="url(#h)"/>
            <circle cx="351.5" cy="270.5" r="17.5" fill="#FAFBFF" fill-opacity=".1" mask="url(#h)"/>
            <circle cx="29.5" cy="272.5" r="17.5" fill="#FAFBFF" fill-opacity=".1" mask="url(#h)"/>
            <circle cx="244.5" cy="270.5" r="17.5" fill="#FAFBFF" fill-opacity=".1" mask="url(#h)"/>
            <circle cx="136.5" cy="335.5" r="17.5" fill="#FAFBFF" fill-opacity=".1" mask="url(#h)"/>
            <circle cx="351.5" cy="333.5" r="17.5" fill="#FAFBFF" fill-opacity=".1" mask="url(#h)"/>
            <circle cx="29.5" cy="335.5" r="17.5" fill="#FAFBFF" fill-opacity=".1" mask="url(#h)"/>
            <circle cx="244.5" cy="333.5" r="17.5" fill="#FAFBFF" fill-opacity=".1" mask="url(#h)"/>
            <circle cx="136.5" cy="398.5" r="17.5" fill="#FAFBFF" fill-opacity=".1" mask="url(#h)"/>
            <circle cx="351.5" cy="397.5" r="17.5" fill="#FAFBFF" fill-opacity=".1" mask="url(#h)"/>
            <circle cx="29.5" cy="398.5" r="17.5" fill="#FAFBFF" fill-opacity=".1" mask="url(#h)"/>
            <circle cx="244.5" cy="397.5" r="17.5" fill="#FAFBFF" fill-opacity=".1" mask="url(#h)"/>
            <circle cx="136.5" cy="462.5" r="17.5" fill="#FAFBFF" fill-opacity=".1" mask="url(#h)"/>
            <circle cx="351.5" cy="460.5" r="17.5" fill="#FAFBFF" fill-opacity=".1" mask="url(#h)"/>
            <circle cx="244.5" cy="460.5" r="17.5" fill="#FAFBFF" fill-opacity=".1" mask="url(#h)"/>
            <circle cx="83" cy="37" r="14" fill="#FAFBFF" fill-opacity=".1" mask="url(#h)"/>
            <circle cx="297" cy="35" r="14" fill="#FAFBFF" fill-opacity=".1" mask="url(#h)"/>
            <circle cx="-25" cy="37" r="14" fill="#FAFBFF" fill-opacity=".1" mask="url(#h)"/>
            <circle cx="190" cy="35" r="14" fill="#FAFBFF" fill-opacity=".1" mask="url(#h)"/>
            <circle cx="83" cy="86" r="14" fill="#FAFBFF" fill-opacity=".1" mask="url(#h)"/>
            <circle cx="297" cy="84" r="14" fill="#FAFBFF" fill-opacity=".1" mask="url(#h)"/>
            <circle cx="-25" cy="86" r="14" fill="#FAFBFF" fill-opacity=".1" mask="url(#h)"/>
            <circle cx="190" cy="84" r="14" fill="#FAFBFF" fill-opacity=".1" mask="url(#h)"/>
            <circle cx="83" cy="135" r="14" fill="#FAFBFF" fill-opacity=".1" mask="url(#h)"/>
            <circle cx="297" cy="133" r="14" fill="#FAFBFF" fill-opacity=".1" mask="url(#h)"/>
            <circle cx="-25" cy="135" r="14" fill="#FAFBFF" fill-opacity=".1" mask="url(#h)"/>
            <circle cx="190" cy="133" r="14" fill="#FAFBFF" fill-opacity=".1" mask="url(#h)"/>
            <circle cx="83" cy="184" r="14" fill="#FAFBFF" fill-opacity=".1" mask="url(#h)"/>
            <circle cx="297" cy="183" r="14" fill="#FAFBFF" fill-opacity=".1" mask="url(#h)"/>
            <circle cx="-25" cy="184" r="14" fill="#FAFBFF" fill-opacity=".1" mask="url(#h)"/>
            <circle cx="190" cy="183" r="14" fill="#FAFBFF" fill-opacity=".1" mask="url(#h)"/>
            <circle cx="83" cy="234" r="14" fill="#FAFBFF" fill-opacity=".1" mask="url(#h)"/>
            <circle cx="297" cy="232" r="14" fill="#FAFBFF" fill-opacity=".1" mask="url(#h)"/>
            <circle cx="-25" cy="234" r="14" fill="#FAFBFF" fill-opacity=".1" mask="url(#h)"/>
            <circle cx="190" cy="232" r="14" fill="#FAFBFF" fill-opacity=".1" mask="url(#h)"/>
            <circle cx="83" cy="283" r="14" fill="#FAFBFF" fill-opacity=".1" mask="url(#h)"/>
            <circle cx="297" cy="281" r="14" fill="#FAFBFF" fill-opacity=".1" mask="url(#h)"/>
            <circle cx="-25" cy="283" r="14" fill="#FAFBFF" fill-opacity=".1" mask="url(#h)"/>
            <circle cx="190" cy="281" r="14" fill="#FAFBFF" fill-opacity=".1" mask="url(#h)"/>
            <circle cx="83" cy="332" r="14" fill="#FAFBFF" fill-opacity=".1" mask="url(#h)"/>
            <circle cx="297" cy="330" r="14" fill="#FAFBFF" fill-opacity=".1" mask="url(#h)"/>
            <circle cx="-25" cy="332" r="14" fill="#FAFBFF" fill-opacity=".1" mask="url(#h)"/>
            <circle cx="190" cy="330" r="14" fill="#FAFBFF" fill-opacity=".1" mask="url(#h)"/>
            <circle cx="83" cy="381" r="14" fill="#FAFBFF" fill-opacity=".1" mask="url(#h)"/>
            <circle cx="297" cy="380" r="14" fill="#FAFBFF" fill-opacity=".1" mask="url(#h)"/>
            <circle cx="-25" cy="381" r="14" fill="#FAFBFF" fill-opacity=".1" mask="url(#h)"/>
            <circle cx="190" cy="380" r="14" fill="#FAFBFF" fill-opacity=".1" mask="url(#h)"/>
            <circle cx="511" cy="-16" r="14" fill="#FAFBFF" fill-opacity=".1" mask="url(#h)"/>
            <circle cx="404" cy="-16" r="14" fill="#FAFBFF" fill-opacity=".1" mask="url(#h)"/>
            <circle cx="565.5" cy="-47.5" r="17.5" fill="#FAFBFF" fill-opacity=".1" mask="url(#h)"/>
            <circle cx="458.5" cy="-47.5" r="17.5" fill="#FAFBFF" fill-opacity=".1" mask="url(#h)"/>
            <circle cx="565.5" cy="15.5" r="17.5" fill="#FAFBFF" fill-opacity=".1" mask="url(#h)"/>
            <circle cx="458.5" cy="15.5" r="17.5" fill="#FAFBFF" fill-opacity=".1" mask="url(#h)"/>
            <circle cx="565.5" cy="79.5" r="17.5" fill="#FAFBFF" fill-opacity=".1" mask="url(#h)"/>
            <circle cx="458.5" cy="79.5" r="17.5" fill="#FAFBFF" fill-opacity=".1" mask="url(#h)"/>
            <circle cx="565.5" cy="142.5" r="17.5" fill="#FAFBFF" fill-opacity=".1" mask="url(#h)"/>
            <circle cx="458.5" cy="142.5" r="17.5" fill="#FAFBFF" fill-opacity=".1" mask="url(#h)"/>
            <circle cx="565.5" cy="205.5" r="17.5" fill="#FAFBFF" fill-opacity=".1" mask="url(#h)"/>
            <circle cx="458.5" cy="205.5" r="17.5" fill="#FAFBFF" fill-opacity=".1" mask="url(#h)"/>
            <circle cx="565.5" cy="268.5" r="17.5" fill="#FAFBFF" fill-opacity=".1" mask="url(#h)"/>
            <circle cx="458.5" cy="268.5" r="17.5" fill="#FAFBFF" fill-opacity=".1" mask="url(#h)"/>
            <circle cx="565.5" cy="332.5" r="17.5" fill="#FAFBFF" fill-opacity=".1" mask="url(#h)"/>
            <circle cx="458.5" cy="332.5" r="17.5" fill="#FAFBFF" fill-opacity=".1" mask="url(#h)"/>
            <circle cx="565.5" cy="395.5" r="17.5" fill="#FAFBFF" fill-opacity=".1" mask="url(#h)"/>
            <circle cx="458.5" cy="395.5" r="17.5" fill="#FAFBFF" fill-opacity=".1" mask="url(#h)"/>
            <circle cx="565.5" cy="458.5" r="17.5" fill="#FAFBFF" fill-opacity=".1" mask="url(#h)"/>
            <circle cx="458.5" cy="458.5" r="17.5" fill="#FAFBFF" fill-opacity=".1" mask="url(#h)"/>
            <circle cx="511" cy="33" r="14" fill="#FAFBFF" fill-opacity=".1" mask="url(#h)"/>
            <circle cx="404" cy="33" r="14" fill="#FAFBFF" fill-opacity=".1" mask="url(#h)"/>
            <circle cx="511" cy="83" r="14" fill="#FAFBFF" fill-opacity=".1" mask="url(#h)"/>
            <circle cx="404" cy="83" r="14" fill="#FAFBFF" fill-opacity=".1" mask="url(#h)"/>
            <circle cx="511" cy="132" r="14" fill="#FAFBFF" fill-opacity=".1" mask="url(#h)"/>
            <circle cx="404" cy="132" r="14" fill="#FAFBFF" fill-opacity=".1" mask="url(#h)"/>
            <circle cx="511" cy="181" r="14" fill="#FAFBFF" fill-opacity=".1" mask="url(#h)"/>
            <circle cx="404" cy="181" r="14" fill="#FAFBFF" fill-opacity=".1" mask="url(#h)"/>
            <circle cx="511" cy="230" r="14" fill="#FAFBFF" fill-opacity=".1" mask="url(#h)"/>
            <circle cx="404" cy="230" r="14" fill="#FAFBFF" fill-opacity=".1" mask="url(#h)"/>
            <circle cx="511" cy="279" r="14" fill="#FAFBFF" fill-opacity=".1" mask="url(#h)"/>
            <circle cx="404" cy="279" r="14" fill="#FAFBFF" fill-opacity=".1" mask="url(#h)"/>
            <circle cx="511" cy="329" r="14" fill="#FAFBFF" fill-opacity=".1" mask="url(#h)"/>
            <circle cx="404" cy="329" r="14" fill="#FAFBFF" fill-opacity=".1" mask="url(#h)"/>
            <circle cx="511" cy="378" r="14" fill="#FAFBFF" fill-opacity=".1" mask="url(#h)"/>
            <circle cx="404" cy="378" r="14" fill="#FAFBFF" fill-opacity=".1" mask="url(#h)"/>
        </g>
        <path fill="#FAFBFF" fill-opacity=".1" d="M265.279 785.724l26.115 6.585a2 2 0 0 1 1.45 2.429L262.5 915.07l82.484 20.801-39.833 157.955a2 2 0 0 1-2.429 1.45l-26.115-6.585a2 2 0 0 1-1.45-2.429l32.006-126.916-82.485-20.801 38.173-151.371a2 2 0 0 1 2.429-1.45zM899.252 691.165l-3.389-4.459a2 2 0 0 1 .383-2.802l29.113-22.126-15.974-21.019 38.56-29.306a2 2 0 0 1 2.803.382l3.389 4.459a2 2 0 0 1-.383 2.802l-30.766 23.383 15.974 21.018-36.908 28.05a2 2 0 0 1-2.802-.382zM974.354 532.037l9.301-5.746a2 2 0 0 1 2.753.65l30.605 49.543 34.938-21.583 40.346 65.31a2 2 0 0 1-.65 2.752l-9.302 5.746a2 2 0 0 1-2.753-.65l-32.31-52.302-34.938 21.583-38.64-62.55a2 2 0 0 1 .65-2.753zM557.387 666.432l-9.947-4.54a2 2 0 0 1-.989-2.649l24.534-53.767-37.36-17.048 32.338-70.87a2 2 0 0 1 2.65-.99l9.947 4.54a2 2 0 0 1 .989 2.649l-25.9 56.76 37.36 17.048-30.972 67.877a2 2 0 0 1-2.65.99zM721.628 328.838a.067.067 0 0 1-.091-.02l-.196-.311-.31.195-.266-.424a.067.067 0 1 1 .113-.071l.207.33.31-.194.254.403c.02.031.01.073-.02.092z"/>
        <g fill="#FAFBFF" fill-opacity=".1" transform="rotate(87.507 -100.598 765.357)">
            <rect width="14" height="138" x="62" rx="2"/>
            <rect width="14" height="138" x="62" rx="2" transform="rotate(90 69 69)"/>
        </g>
        <g fill="#FAFBFF" fill-opacity=".1" transform="rotate(-160.65 391.51 132.354)">
            <rect width="15" height="144" x="65" rx="2"/>
            <rect width="15" height="144" x="65" rx="2" transform="rotate(90 72.5 72)"/>
        </g>
    </g>
</svg>
