<svg xmlns="http://www.w3.org/2000/svg" width="28" height="28" viewBox="0 0 28 28">
    <path fill="#FAFBFF" fill-rule="nonzero" d="M9.821 5c-1.784 0-3.25 1.42-3.25 3.15s1.466 3.15 3.25 3.15c1.785 0 3.25-1.42 3.25-3.15S11.606 5 9.821 5zm8.358 0c-1.785 0-3.25 1.42-3.25 3.15s1.465 3.15 3.25 3.15c1.784 0 3.25-1.42 3.25-3.15S19.963 5 18.179 5zM9.82 6.8c.78 0 1.393.594 1.393 1.35 0 .756-.613 1.35-1.393 1.35S8.43 8.906 8.43 8.15c0-.756.613-1.35 1.392-1.35zm8.358 0c.78 0 1.392.594 1.392 1.35 0 .756-.613 1.35-1.392 1.35-.78 0-1.393-.594-1.393-1.35 0-.756.613-1.35 1.393-1.35zM5.643 10.4c-2.042 0-3.714 1.62-3.714 3.6 0 1.002.442 1.905 1.131 2.56C1.823 17.37 1 18.752 1 20.3h1.857c0-1.501 1.237-2.7 2.786-2.7s2.786 1.199 2.786 2.7h1.857c0-1.547-.824-2.929-2.06-3.74.689-.655 1.131-1.558 1.131-2.56 0-1.98-1.672-3.6-3.714-3.6zm4.643 9.9a4.43 4.43 0 0 0-.929 2.7h1.857c0-1.501 1.237-2.7 2.786-2.7s2.786 1.199 2.786 2.7h1.857a4.43 4.43 0 0 0-.929-2.7 4.624 4.624 0 0 0-1.131-1.04c.689-.655 1.131-1.558 1.131-2.56 0-1.98-1.672-3.6-3.714-3.6s-3.714 1.62-3.714 3.6c0 1.002.442 1.905 1.131 2.56a4.624 4.624 0 0 0-1.131 1.04zm7.428 0h1.857c0-1.501 1.237-2.7 2.786-2.7s2.786 1.199 2.786 2.7H27c0-1.547-.823-2.929-2.06-3.74.689-.655 1.131-1.558 1.131-2.56 0-1.98-1.672-3.6-3.714-3.6s-3.714 1.62-3.714 3.6c0 1.002.442 1.905 1.132 2.56-1.237.811-2.06 2.193-2.06 3.74zM5.643 12.2c1.037 0 1.857.795 1.857 1.8s-.82 1.8-1.857 1.8c-1.038 0-1.857-.795-1.857-1.8s.82-1.8 1.857-1.8zm16.714 0c1.038 0 1.857.795 1.857 1.8s-.82 1.8-1.857 1.8S20.5 15.005 20.5 14s.82-1.8 1.857-1.8zM14 14.9c1.037 0 1.857.795 1.857 1.8s-.82 1.8-1.857 1.8-1.857-.795-1.857-1.8.82-1.8 1.857-1.8z"/>
</svg>
