<svg xmlns="http://www.w3.org/2000/svg" width="28" height="28" viewBox="0 0 28 28">
    <path fill="#FFF" fill-rule="nonzero" stroke="#FFF" stroke-width=".5" d="M14 2C7.379 2 2 7.379 2 14s5.379 12 12 12 12-5.379 12-12S20.621 2 14 2zm0 1.043c6.057 0 10.957 4.9 10.957 10.957S20.057 24.957 14 24.957 3.043 20.057 3.043 14 7.943 3.043 14 3.043zm.15 4.44c-1.945 0-3.236 1.179-3.517 2.975-.018.113.037.187.15.206l1.179.207c.113.018.187-.038.206-.15.224-1.142.897-1.778 1.945-1.778 1.067 0 1.815.674 1.815 1.74 0 .637-.224 1.067-.878 1.965l-1.255 1.72c-.393.544-.56.937-.56 1.686v.767c0 .112.074.187.186.185h1.235c.112 0 .187-.074.187-.186v-.599c0-.636.113-.898.487-1.403l1.253-1.722c.637-.88.954-1.534.954-2.432 0-1.853-1.366-3.182-3.386-3.182zm-.822 10.948c-.112 0-.187.075-.187.187v1.61c0 .111.074.186.187.186h1.423c.112 0 .187-.074.187-.187v-1.609c0-.111-.075-.187-.187-.187h-1.423z"/>
</svg>
