<svg xmlns="http://www.w3.org/2000/svg" width="28" height="28" viewBox="0 0 28 28">
    <path fill="#FAFBFF" fill-rule="nonzero" stroke="#FFF" stroke-width=".3" d="M13.5 4c-3.14 0-5.7 2.45-5.7 5.455 0 3.004 2.56 5.454 5.7 5.454s5.7-2.45 5.7-5.454C19.2 6.45 16.64 4 13.5 4zm0 10.91C8.268 14.91 4 18.992 4 24h1.9c0-4.027 3.392-7.273 7.6-7.273s7.6 3.246 7.6 7.273H23c0-5.007-4.268-9.09-9.5-9.09zm0-9.092c2.108 0 3.8 1.62 3.8 3.637s-1.692 3.636-3.8 3.636c-2.108 0-3.8-1.62-3.8-3.636 0-2.018 1.692-3.637 3.8-3.637z"/>
</svg>
