<svg xmlns="http://www.w3.org/2000/svg" width="28" height="28" viewBox="0 0 28 28">
    <path fill="#FAFBFF" fill-rule="nonzero" d="M9.111 3A6.118 6.118 0 0 0 3 9.111v9.778A6.118 6.118 0 0 0 9.111 25h9.778A6.118 6.118 0 0 0 25 18.889V9.11A6.118 6.118 0 0 0 18.889 3H9.11zm0 2.444h9.778a3.671 3.671 0 0 1 3.667 3.667v9.778a3.671 3.671 0 0 1-3.667 3.667H9.11a3.671 3.671 0 0 1-3.667-3.667V9.11a3.671 3.671 0 0 1 3.667-3.667zm11 1.223a1.222 1.222 0 1 0 0 2.444 1.222 1.222 0 0 0 0-2.444zM14 7.889A6.118 6.118 0 0 0 7.889 14 6.118 6.118 0 0 0 14 20.111 6.118 6.118 0 0 0 20.111 14 6.118 6.118 0 0 0 14 7.889zm0 2.444A3.671 3.671 0 0 1 17.667 14 3.671 3.671 0 0 1 14 17.667 3.671 3.671 0 0 1 10.333 14 3.671 3.671 0 0 1 14 10.333z"/>
</svg>
