<svg xmlns="http://www.w3.org/2000/svg" width="58" height="18" viewBox="0 0 58 18">
    <path fill="#FFF" fill-rule="evenodd" d="M0 17.755v-1.79L6.385 2.673H.44V.245H9.64v1.79L3.254 15.327h6.678v2.428H0zm12.67-6.008V6.253c0-2.256.342-3.53 1.174-4.56C14.822.514 16.168 0 18.272 0c2.25 0 3.694.613 4.648 1.986.685.981.954 2.183.954 4.267v5.494c0 2.256-.342 3.53-1.174 4.56C21.72 17.486 20.376 18 18.272 18c-2.25 0-3.694-.613-4.648-1.962-.685-1.005-.954-2.231-.954-4.291zm8.268-.27V6.523c0-3.016-.71-4.12-2.666-4.12-1.957 0-2.667 1.104-2.667 4.12v4.954c0 3.016.71 4.12 2.667 4.12 1.957 0 2.666-1.104 2.666-4.12zm8.636 6.278L25.904.245h2.936l2.202 12.85 3.01-12.85h2.25l3.009 12.85L41.513.245h2.935l-3.67 17.51h-2.617L35.176 5.469l-2.984 12.286h-2.618zm24.244-3.532h-5.48l-.954 3.532h-3.18L49.732.245H52.4l5.529 17.51h-3.156l-.954-3.532zm-.612-2.378l-2.128-7.823-2.128 7.823h4.256z"/>
</svg>
