<svg xmlns="http://www.w3.org/2000/svg" width="28" height="28" viewBox="0 0 28 28">
    <path fill="#FAFBFF" fill-opacity=".7" fill-rule="nonzero" d="M2 4v20h24V4H2zm1.714 1.818h20.572V18.46l-4.527-4.83-.616-.653-3.884 4.12-4.929-5.285-.616-.653-6 6.364V5.818zm17.143 1.818c-.947 0-1.714.814-1.714 1.819s.767 1.818 1.714 1.818c.948 0 1.714-.813 1.714-1.818 0-1.005-.766-1.819-1.714-1.819zM9.714 13.744l7.875 8.438H3.714v-2.074l6-6.364zm9.429 1.819l5.143 5.454v1.165h-4.26l-3.562-3.807 2.679-2.813z"/>
</svg>
