<svg xmlns="http://www.w3.org/2000/svg" width="28" height="28" viewBox="0 0 28 28">
    <path fill="#FAFBFF" fill-rule="nonzero" stroke="#FAFBFF" stroke-width=".3" d="M14.295 3C8.063 3 3 8.063 3 14.295c0 6.231 5.063 11.294 11.295 11.294 6.231 0 11.294-5.063 11.294-11.294C25.589 8.063 20.526 3 14.295 3zm-.49 1.036v4.861a19.682 19.682 0 0 1-3.553-.4c.194-.588.415-1.134.66-1.624.809-1.618 1.835-2.603 2.893-2.837zm.979 0c1.058.234 2.084 1.22 2.893 2.837.246.492.467 1.04.661 1.63-1.1.227-2.296.365-3.554.394v-4.86zm-3.342.344c-.53.557-1.004 1.253-1.406 2.055-.28.56-.524 1.176-.738 1.834-.961-.259-1.83-.585-2.58-.963a10.29 10.29 0 0 1 4.724-2.926zm5.705 0a10.29 10.29 0 0 1 4.72 2.922c-.739.385-1.607.715-2.573.975a13.344 13.344 0 0 0-.741-1.842c-.402-.802-.875-1.498-1.406-2.055zm5.36 3.687a10.254 10.254 0 0 1 2.09 5.738h-4.423c-.036-1.643-.246-3.194-.605-4.584 1.098-.297 2.087-.686 2.939-1.154zm-16.431.007c.86.457 1.852.842 2.946 1.139-.36 1.392-.57 2.946-.607 4.592H3.991c.1-2.151.866-4.122 2.085-5.73zm3.9 1.369c1.19.253 2.477.404 3.83.434v3.928H9.393c.037-1.572.242-3.052.582-4.362zm8.639.007c.339 1.308.543 2.786.58 4.355h-4.411V9.877a20.79 20.79 0 0 0 3.83-.427zM3.99 14.784h4.424c.036 1.643.246 3.194.605 4.584-1.098.297-2.087.686-2.939 1.154a10.254 10.254 0 0 1-2.09-5.738zm5.403 0h4.411v3.928a20.79 20.79 0 0 0-3.83.427c-.34-1.308-.544-2.786-.58-4.355zm5.39 0h4.41c-.036 1.572-.241 3.052-.581 4.362a20.635 20.635 0 0 0-3.83-.434v-3.928zm5.39 0h4.424a10.254 10.254 0 0 1-2.085 5.73 14.25 14.25 0 0 0-2.946-1.138c.36-1.392.57-2.946.607-4.592zm-6.369 4.908v4.86c-1.058-.233-2.084-1.218-2.893-2.836a12.199 12.199 0 0 1-.661-1.63c1.1-.227 2.296-.365 3.554-.394zm.979 0c1.256.03 2.45.17 3.553.4a12.191 12.191 0 0 1-.66 1.624c-.809 1.618-1.835 2.603-2.893 2.837v-4.861zm-5.49.62c.215.661.462 1.28.742 1.842.402.802.875 1.498 1.406 2.055a10.29 10.29 0 0 1-4.72-2.922c.739-.385 1.607-.715 2.573-.975zm9.997.008c.961.259 1.83.585 2.58.963a10.29 10.29 0 0 1-4.724 2.926c.53-.557 1.004-1.253 1.406-2.055.28-.56.524-1.176.738-1.834z"/>
</svg>
