<svg xmlns="http://www.w3.org/2000/svg" width="28" height="28" viewBox="0 0 28 28">
    <path fill="#FAFBFF" fill-rule="nonzero" d="M24 7.894c-.7.322-1.451.538-2.24.636a4.027 4.027 0 0 0 1.714-2.234 7.663 7.663 0 0 1-2.476.98A3.827 3.827 0 0 0 18.154 6c-2.153 0-3.9 1.808-3.9 4.039 0 .316.036.624.103.92-3.24-.168-6.111-1.776-8.035-4.22a4.136 4.136 0 0 0-.527 2.03 4.08 4.08 0 0 0 1.734 3.364 3.791 3.791 0 0 1-1.766-.506v.05c0 1.959 1.344 3.59 3.126 3.963a3.772 3.772 0 0 1-1.761.067c.497 1.604 1.937 2.774 3.641 2.807A7.642 7.642 0 0 1 5 20.184 10.736 10.736 0 0 0 10.975 22c7.17 0 11.091-6.155 11.091-11.492 0-.175-.004-.351-.01-.523A8.09 8.09 0 0 0 24 7.894z"/>
</svg>
