<svg xmlns="http://www.w3.org/2000/svg" width="28" height="28" viewBox="0 0 28 28">
    <path fill="#FAFBFF" fill-opacity=".7" fill-rule="nonzero" d="M2.667 4A.667.667 0 0 0 2 4.667v18.667c0 .368.298.666.667.666h22.666a.667.667 0 0 0 .667-.667V4.667A.667.667 0 0 0 25.333 4H2.667zm.666 1.333h2v2h-2v-2zm3.334 0h2.666v2H6.667v-2zm4 0h2.666v2h-2.666v-2zm4 0h2.666v2h-2.666v-2zm4 0h2.666v2h-2.666v-2zm4 0h2v2h-2v-2zM3.333 8.667h21.334v10.666H3.333V8.667zm8.68 2a.667.667 0 0 0-.68.666v5.334a.667.667 0 0 0 .998.58l4.666-2.668a.667.667 0 0 0 0-1.158l-4.666-2.667a.667.667 0 0 0-.318-.087zm.654 1.816L15.322 14l-2.655 1.517v-3.034zm-9.334 8.184h2v2h-2v-2zm3.334 0h2.666v2H6.667v-2zm4 0h2.666v2h-2.666v-2zm4 0h2.666v2h-2.666v-2zm4 0h2.666v2h-2.666v-2zm4 0h2v2h-2v-2z"/>
</svg>
